<svg viewBox="0 0 40 40" fill="none" xmlns="http://www.w3.org/2000/svg">
<path fill-rule="evenodd" clip-rule="evenodd" d="M18.766 6.15199C19.1314 6.30348 19.4436 6.5599 19.6633 6.88884C19.8829 7.21778 20.0001 7.60446 20 7.99999V32C19.9999 32.3955 19.8826 32.7821 19.6628 33.1109C19.443 33.4397 19.1307 33.696 18.7653 33.8473C18.3999 33.9987 17.9978 34.0383 17.6099 33.9612C17.222 33.884 16.8657 33.6936 16.586 33.414L9.172 26H4C3.46957 26 2.96086 25.7893 2.58579 25.4142C2.21071 25.0391 2 24.5304 2 24V16C2 15.4696 2.21071 14.9608 2.58579 14.5858C2.96086 14.2107 3.46957 14 4 14H9.172L16.586 6.58599C16.8657 6.30612 17.2221 6.1155 17.6102 6.03825C17.9982 5.961 18.4005 6.00058 18.766 6.15199Z" fill="black"/>
<path fill-rule="evenodd" clip-rule="evenodd" d="M29.3139 5.85797C29.689 5.48303 30.1976 5.2724 30.7279 5.2724C31.2582 5.2724 31.7669 5.48303 32.1419 5.85797C34.0016 7.71328 35.4764 9.91768 36.4817 12.3446C37.487 14.7715 38.0029 17.3731 37.9999 20C38.0029 22.6269 37.487 25.2284 36.4817 27.6554C35.4764 30.0823 34.0016 32.2867 32.1419 34.142C31.7647 34.5063 31.2595 34.7079 30.7351 34.7033C30.2107 34.6988 29.7091 34.4884 29.3383 34.1176C28.9675 33.7468 28.7571 33.2452 28.7526 32.7208C28.748 32.1964 28.9496 31.6912 29.3139 31.314C30.8022 29.8301 31.9824 28.0666 32.7866 26.1249C33.5908 24.1832 34.0032 22.1016 33.9999 20C33.9999 15.58 32.2119 11.584 29.3139 8.68597C28.939 8.31092 28.7283 7.8023 28.7283 7.27197C28.7283 6.74164 28.939 6.23303 29.3139 5.85797ZM23.6559 11.514C23.8417 11.328 24.0622 11.1805 24.305 11.0799C24.5478 10.9792 24.8081 10.9274 25.0709 10.9274C25.3337 10.9274 25.594 10.9792 25.8368 11.0799C26.0796 11.1805 26.3002 11.328 26.4859 11.514C27.6017 12.6273 28.4865 13.9501 29.0895 15.4064C29.6926 16.8627 30.002 18.4238 29.9999 20C30.0018 21.5762 29.6924 23.1372 29.0894 24.5935C28.4863 26.0498 27.6016 27.3726 26.4859 28.486C26.1106 28.8613 25.6016 29.0721 25.0709 29.0721C24.5402 29.0721 24.0312 28.8613 23.6559 28.486C23.2806 28.1107 23.0698 27.6017 23.0698 27.071C23.0698 26.5402 23.2806 26.0313 23.6559 25.656C24.4002 24.9143 24.9906 24.0328 25.3928 23.0621C25.7951 22.0914 26.0014 21.0507 25.9999 20C26.0015 18.9492 25.7953 17.9085 25.393 16.9378C24.9907 15.9671 24.4003 15.0856 23.6559 14.344C23.47 14.1582 23.3224 13.9376 23.2218 13.6949C23.1211 13.4521 23.0693 13.1918 23.0693 12.929C23.0693 12.6661 23.1211 12.4059 23.2218 12.1631C23.3224 11.9203 23.47 11.6997 23.6559 11.514Z" fill="black"/>
</svg>
